<?xml version="1.0" encoding="UTF-8"?>
<svg width="650" height="650" version="1.1" viewBox="0 0 650 650" xmlns:xlink="http://www.w3.org/1999/xlink" x="0px" y="0px" xmlns="http://www.w3.org/2000/svg">
<polygon fill="#000000" points="355.260,573.930 325.534,542.774 480.404,597.741 446.384,564.462 609.804,604.982 558.807,509.742 603.288,514.874 528.444,415.864 550.893,410.279 469.754,318.731 369.214,268.660 280.438,251.056 279.872,298.694 236.785,285.415 206.787,230.248 151.594,185.140 128.585,237.854 87.324,215.786 19.999,235.956 0.009,297.106 46.233,353.682 34.070,371.224 179.370,481.234 355.280,573.944" />
<polygon fill="#004c54" points="315.850,545.330 290.430,518.690 446.650,577.005 415.880,546.904 593.530,591.961 541.016,499.091 585.815,504.002 510.781,410.294 536.063,404.930 462.165,323.807 375.724,277.588 376.243,282.819 375.811,286.300 291.314,257.557 282.212,307.165 228.449,288.152 200.132,235.983 153.497,196.296 138.948,263.585 137.276,280.618 98.170,264.212 121.580,243.497 85.673,224.412 25.717,242.622 9.034,295.062 59.352,353.336 46.546,367.767 198.356,483.027 315.846,545.327" />
<polygon points="493.870,404.540 513.690,399.454 383.450,285.814 377.510,301.505 300.748,263.186 221.517,291.209 155.149,205.940 146.457,262.321 133.060,290.211 89.551,267.994 107.078,241.637 30.660,248.410 16.867,293.318 73.325,354.502 58.359,364.803 181.829,463.155 272.981,514.373 258.067,495.602 276.000,503.609 408.470,554.035 382.493,528.871 479.822,555.213 569.098,574.098 524.781,490.069 562.602,492.420 493.874,404.539"/>
<polygon points="270.070,461.060 268.249,460.397 269.885,460.983 270.070,461.060"/>
<polygon fill="#a5acaf" points="211.517,291.209 165.149,225.940 186.457,322.321 153.060,320.211 59.551,267.994 97.078,251.637 40.660,258.410 26.867,283.318 93.325,354.502 128.359,364.803 138.359,334.803 201.829,333.155 "/>
<polygon points="267.950,460.290 268.248,460.398 267.950,460.290"/>
<polygon fill="#ffffff" points="332.800,362.850 264.976,362.073 394.696,381.580 280.346,381.462 256.972,371.125 267.510,377.883 330.834,413.384 391.679,429.234 327.913,427.213 422.809,447.044 474.268,445.496 332.508,458.235 295.320,447.944 303.682,451.734 471.532,504.320 442.953,505.847 395.268,500.417 514.668,526.162 334.438,504.901 333.132,504.335 355.298,519.676 376.502,534.400 257.312,489.724 227.771,475.087 247.818,494.872 148.124,421.360 81.447,365.652 142.143,373.166 157.145,386.476 178.719,421.103 173.000,404.049 208.666,435.081 272.782,462.019 269.882,460.975 208.342,407.453 243.416,417.409 205.061,380.545 192.857,359.289 183.322,353.185 162.000,352.439 159.480,355.227 178.792,359.233 189.324,370.588 189.339,370.583 189.468,382.643 181.322,387.529 189.170,399.743 173.587,384.237 182.304,379.099 174.924,360.184 154.708,362.637 153.694,364.987 152.481,364.303 145.286,361.027 152.512,360.626 187.746,346.442 146.876,345.146 152.754,341.155 242.409,345.779 250.082,350.140 232.066,325.974 332.796,362.848" />

<polygon fill="#a5acaf" points="198.060,399.170 208.922,399.350 191.030,376.860 189.348,370.586 192.979,370.231 200.159,372.926 192.866,359.292 205.070,380.548 243.425,417.412 208.351,407.455 269.891,460.977 267.957,460.283 198.061,399.170" />
<polygon fill="#004c54" points="177.960,377.070 172.396,363.483 157.754,365.021 156.982,367.068 153.696,364.990 154.709,362.640 174.925,360.186 182.305,379.101 173.588,384.239 170.734,380.675 177.959,377.070" />
<polygon points="172.400,363.490 177.964,377.077 170.739,380.682 163.112,372.227 166.414,364.672 160.947,365.989 158.982,368.581 156.987,367.074 157.758,365.027 172.400,363.490"/>
<polygon fill="#ffffff" points="160.950,365.990 166.417,364.673 163.115,372.228 158.985,368.582 160.950,365.990" />
<polygon fill="#a5acaf" points="474.270,445.500 422.811,447.048 327.915,427.217 391.681,429.238 330.836,413.388 267.512,377.887 470.032,410.976 493.504,434.633 515.454,466.725 371.924,466.391 332.509,458.240 474.269,445.501"/>
<polygon fill="#a5acaf" points="282.140,346.650 403.170,321.563 403.839,321.913 433.086,343.580 464.416,382.110 280.346,381.467 394.696,381.585 264.976,362.078 332.800,362.855 232.070,325.981 229.308,319.650 282.141,346.650"/>
<polygon fill="#a5acaf" points="514.670,526.170 395.270,500.425 442.955,505.856 471.534,504.328 303.684,451.742 387.405,476.531 490.165,488.015 526.463,544.977 429.551,531.755 334.439,504.909 514.669,526.170"/>
<polygon fill="#a5acaf" points="243.840,319.370 290.100,327.593 331.927,293.542 361.113,318.927 326.969,334.412 243.840,319.369"/>
<polygon fill="#a5acaf" points="108.300,330.360 99.213,334.340 112.147,341.160 127.293,335.904 108.300,330.360"/>
<polygon  points="99.216,334.340 108.303,330.359 127.296,335.903 112.150,341.159 99.216,334.340"/>
</svg>
